Coordinates
version=1
nRows=21
nColumns=22
inDegrees=yes

Units are S.I. units (second, meters, Newtons, ...)
If the header above contains a line with 'inDegrees', this indicates whether rotational values are in degrees (yes) or radians (no).

endheader
time	pelvis_tilt	pelvis_list	pelvis_rotation	pelvis_tx	pelvis_ty	pelvis_tz	hip_flexion_r	hip_adduction_r	hip_rotation_r	knee_angle_r	ankle_angle_r	subtalar_angle_r	hip_flexion_l	hip_adduction_l	hip_rotation_l	knee_angle_l	ankle_angle_l	subtalar_angle_l	lumbar_extension	lumbar_bending	lumbar_rotation
      0.01000000	    -12.76067290	     -3.02607805	     -3.83678138	     -0.50959922	      0.97921789	      0.44675042	     19.18248743	      5.71340444	     -3.09985880	    -16.57038322	     15.37527148	     -8.25231205	     20.52877031	     -3.13098165	     -6.72268433	    -20.45866203	     19.50774573	     -2.76552711	      6.53491077	      4.45911593	      4.24586916
      0.02000000	    -12.75689464	     -3.02956312	     -3.81832504	     -0.50965528	      0.97923342	      0.44664003	     19.18195272	      5.70771525	     -3.09835160	    -16.57039069	     15.37211609	     -8.25140915	     20.53197439	     -3.12559661	     -6.72762040	    -20.45898910	     19.50590707	     -2.76685505	      6.53282946	      4.47273749	      4.24896552
      0.03000000	    -12.73385471	     -3.03871089	     -3.77813697	     -0.50973990	      0.97927981	      0.44649445	     19.16340128	      5.69649182	     -3.15011973	    -16.56915108	     15.34054347	     -8.24030500	     20.52832624	     -3.11822935	     -6.70868090	    -20.47746405	     19.47960056	     -2.77757568	      6.50409189	      4.48444570	      4.24932496
      0.04000000	    -12.72892206	     -3.04140150	     -3.75769860	     -0.50981636	      0.97929745	      0.44637149	     19.16405926	      5.68939101	     -3.14778700	    -16.57191610	     15.34019126	     -8.24000459	     20.52784653	     -3.11025195	     -6.71168352	    -20.46972026	     19.47993882	     -2.77808133	      6.50361873	      4.49791855	      4.25465870
      0.05000000	    -12.67756685	     -3.02105065	     -3.71296725	     -0.50987876	      0.97939642	      0.44620184	     19.12501244	      5.64134342	     -3.21053698	    -16.59038596	     15.34695919	     -8.22670439	     20.45719856	     -3.05874506	     -6.66445654	    -20.41447779	     19.45286823	     -2.79086694	      6.45014329	      4.47395593	      4.24887619
      0.06000000	    -12.66526240	     -3.02128628	     -3.69559315	     -0.50998209	      0.97942213	      0.44609874	     19.11930351	      5.63109634	     -3.22284660	    -16.59110252	     15.34785311	     -8.22410651	     20.44849128	     -3.04956721	     -6.66413096	    -20.40410846	     19.44740713	     -2.79288239	      6.44056957	      4.47738266	      4.28802875
      0.07000000	    -12.65965399	     -3.02362026	     -3.67595579	     -0.51010918	      0.97943223	      0.44600371	     19.12222527	      5.62491351	     -3.22011697	    -16.59379530	     15.34709275	     -8.22379265	     20.45055314	     -3.04433706	     -6.66893856	    -20.39675156	     19.44698910	     -2.79302565	      6.43712320	      4.48469670	      4.29721620
      0.08000000	    -12.63009462	     -2.99644913	     -3.66844636	     -0.51024322	      0.97947962	      0.44592212	     19.12383397	      5.58527416	     -3.24605610	    -16.63809165	     15.34980480	     -8.21395368	     20.41164219	     -3.00667220	     -6.67381179	    -20.35976165	     19.42352442	     -2.79333471	      6.40395979	      4.45231264	      4.35010387
      0.09000000	    -12.62156985	     -2.99610724	     -3.65279217	     -0.51040413	      0.97948232	      0.44585418	     19.12557173	      5.57863390	     -3.24681274	    -16.63969854	     15.35282772	     -8.21187576	     20.41801323	     -3.00004894	     -6.66824385	    -20.36404484	     19.41994153	     -2.79339108	      6.39358255	      4.44863394	      4.38394726
      0.10000000	    -12.61720390	     -2.99829925	     -3.63889371	     -0.51057309	      0.97948039	      0.44578334	     19.13231002	      5.57453963	     -3.24459435	    -16.64117135	     15.35277667	     -8.21152673	     20.42448782	     -2.99691828	     -6.67004944	    -20.35870392	     19.41977616	     -2.79334721	      6.38562656	      4.45327763	      4.39467575
      0.11000000	    -12.60951627	     -2.99783187	     -3.63318763	     -0.51078647	      0.97946646	      0.44574175	     19.15278356	      5.57010457	     -3.24775805	    -16.67049016	     15.35047557	     -8.20915737	     20.43981806	     -2.99223738	     -6.64803995	    -20.37732198	     19.41551638	     -2.79260222	      6.36754985	      4.44759026	      4.44974920
      0.12000000	    -12.60714920	     -2.99982049	     -3.62379887	     -0.51097243	      0.97945627	      0.44568476	     19.16283844	      5.56768946	     -3.24589028	    -16.67165779	     15.35066093	     -8.20884825	     20.44957867	     -2.98989916	     -6.64851149	    -20.37285415	     19.41597012	     -2.79260984	      6.35791792	      4.45104925	      4.45831555
      0.13000000	    -12.66139156	     -2.99843872	     -3.62806864	     -0.51125712	      0.97932360	      0.44564622	     19.28072591	      5.56505770	     -3.25707331	    -16.75434697	     15.35965849	     -8.19839307	     20.54314015	     -2.98983920	     -6.62545667	    -20.40884031	     19.42599187	     -2.79595281	      6.40737541	      4.45535740	      4.50560568
      0.14000000	    -12.66147870	     -2.99869578	     -3.61170603	     -0.51146602	      0.97930620	      0.44559252	     19.29109912	      5.56078600	     -3.24869706	    -16.74861681	     15.35537256	     -8.19604268	     20.57234282	     -2.98370722	     -6.60364150	    -20.43518825	     19.42020211	     -2.79603321	      6.39654616	      4.45021496	      4.52353442
      0.15000000	    -12.71079680	     -3.01157606	     -3.58419817	     -0.51171130	      0.97920623	      0.44549910	     19.37384406	      5.56255767	     -3.28944641	    -16.77829946	     15.34638659	     -8.18546255	     20.65903373	     -2.98478819	     -6.54364855	    -20.46279110	     19.41566644	     -2.79888684	      6.44249241	      4.47022925	      4.50328503
      0.16000000	    -12.70514421	     -3.00939687	     -3.57455619	     -0.51189846	      0.97920585	      0.44543886	     19.38245247	      5.55544240	     -3.28303361	    -16.78374212	     15.34333042	     -8.18429311	     20.67404839	     -2.97705831	     -6.53335067	    -20.47730691	     19.41323269	     -2.79938463	      6.42498573	      4.46891126	      4.51644113
      0.17000000	    -12.70269814	     -3.00945029	     -3.56917804	     -0.51206074	      0.97921234	      0.44537680	     19.38963506	      5.55097625	     -3.28252429	    -16.78209329	     15.34264028	     -8.18408726	     20.68119905	     -2.97286009	     -6.53328890	    -20.47301656	     19.41259965	     -2.79940141	      6.41303803	      4.47402416	      4.51966291
      0.18000000	    -12.68729198	     -3.00119368	     -3.56070427	     -0.51225241	      0.97923505	      0.44529837	     19.40035111	      5.53447887	     -3.28688380	    -16.81039289	     15.33094112	     -8.18138760	     20.68380386	     -2.95583146	     -6.51409672	    -20.48437154	     19.39930295	     -2.79961424	      6.38075788	      4.46734623	      4.53269136
      0.19000000	    -12.68465620	     -3.00034640	     -3.55682446	     -0.51241074	      0.97924898	      0.44522817	     19.40691413	      5.52896595	     -3.28763588	    -16.80786378	     15.33060941	     -8.18110339	     20.68837798	     -2.95064574	     -6.51621709	    -20.47671070	     19.39794514	     -2.79971828	      6.36827169	      4.47138641	      4.53420709
      0.20000000	    -12.63379863	     -2.95157502	     -3.55490866	     -0.51254084	      0.97934771	      0.44512632	     19.38460189	      5.46486633	     -3.31209620	    -16.84715981	     15.33362655	     -8.17149710	     20.61872364	     -2.88712474	     -6.52452494	    -20.42594365	     19.34691026	     -2.80634103	      6.30157023	      4.41618281	      4.55393683
      0.21000000	    -12.57776628	     -2.93165269	     -3.56871105	     -0.51268055	      0.97945498	      0.44505913	     19.33939232	      5.44220475	     -3.27722392	    -16.85502881	     15.34130992	     -8.15941287	     20.54892948	     -2.86267625	     -6.54901375	    -20.39298639	     19.33025183	     -2.82176387	      6.22253784	      4.39656832	      4.57946220
